<?xml version="1.0" encoding="UTF-8" standalone="no"?>
<!-- Created with chatGPT (http://www.chatgpt.com) and Inkscape (http://www.inkscape.org) -->

<svg
   version="1.1"
   id="svg1"
   width="1024"
   height="1024"
   viewBox="0 0 1024 1024"
   xmlns="http://www.w3.org/2000/svg"
   xmlns:svg="http://www.w3.org/2000/svg">
  <defs
     id="defs1" />
  <g
     id="g1">
    <g
       id="g2"
       transform="translate(-4,-4)">
      <path
         style="fill:#f5f0e1"
         d="M 512,1024 H 0 V 512 0 h 512 512 v 512 512 z M 786.95166,872 h 4.04258 l 3.88347,-3.50848 3.88347,-3.50848 3.53473,-6.74152 3.53473,-6.74152 14.64887,-33.5 14.64887,-33.5 1.35835,-2.09659 1.35834,-2.0966 3.07747,-1.27472 L 844,777.75736 V 775.37868 773 h -13 -13 v 2.33994 2.33994 l 4,1.32012 4,1.32012 0.008,1.58994 0.008,1.58994 -7.13385,19.29112 -7.13385,19.29112 -0.31678,-0.31678 -0.31678,-0.31677 -7.55521,-19.82383 -7.55521,-19.82382 0.56592,-0.91567 0.56591,-0.91567 3.35925,-1.40359 3.35925,-1.40358 L 803.311,775.08126 802.76674,773 H 786.88337 771 v 2.5 2.5 h 1.28777 1.28778 l 3.15208,2.75 3.15208,2.75 11.53755,27.87379 11.53755,27.87379 -3.07454,7.38538 -3.07454,7.38539 -1.73787,2.14617 -1.73786,2.14617 -3.35593,-1.16988 -3.35593,-1.16989 -3.31675,1.09463 -3.31674,1.09462 -0.99233,1.85417 L 778,861.86852 v 2.61119 2.6112 l 2.45455,2.45454 L 782.90909,872 Z M 211.5,840.5044 l 6,-0.4171 4.7442,-1.63568 4.7442,-1.63567 4.97523,-4.47316 4.97522,-4.47315 3.28058,-6.66379 3.28057,-6.6638 v -9.62185 -9.62185 l -3.5,-6.86153 -3.5,-6.86154 -4.93729,-3.72729 -4.93729,-3.72729 -6.28504,-1.70128 -6.28505,-1.70129 -5.77767,0.65555 -5.77766,0.65554 -6.20803,3.02739 -6.20802,3.02739 -3.48538,4.07187 -3.48537,4.07188 -2.16307,4.60173 -2.16307,4.60173 -1.03694,6.25773 -1.03694,6.25772 1.14942,5.72335 1.14941,5.72335 2.01052,4.15318 2.01052,4.15317 3.73347,3.74813 3.73348,3.74813 3.73447,1.91441 3.73446,1.91442 3.76554,0.94835 3.76553,0.94835 z m 2.47655,-6.9519 -3.47655,0.50028 -4.23746,-1.97188 -4.23745,-1.97188 -2.90394,-4.57905 -2.90395,-4.57904 -1.24139,-6.57914 -1.2414,-6.57915 0.49401,-8.66411 0.494,-8.66411 2.17913,-4.27144 2.17912,-4.27144 3.20967,-2.02003 3.20966,-2.02003 4.78534,0.51633 4.78534,0.51633 2.90292,2.06706 2.90291,2.06706 2.56617,5.24505 2.56617,5.24506 0.7515,7.98082 0.75151,7.98081 -0.67517,6.76934 -0.67517,6.76933 -1.83076,3.12613 -1.83076,3.12614 -2.52345,1.88064 -2.52345,1.88063 z m 269.61313,7.03421 6.08969,-0.33067 6.22932,-2.79555 6.22932,-2.79555 4.45007,-5.08247 4.45007,-5.08247 1.94786,-5.19915 1.94787,-5.19916 0.66089,-6.45066 0.66089,-6.45066 -2.12647,-6.85019 -2.12647,-6.85018 -3.44572,-4.65995 -3.44573,-4.65995 -6.78461,-3.34005 -6.78461,-3.34005 -8.02102,8e-4 -8.02103,7.9e-4 -5.54563,2.60032 -5.54563,2.60032 -3.54627,3.11366 -3.54628,3.11367 -3.06972,5.78522 -3.06973,5.78522 -1.2062,6.18763 -1.20621,6.18764 1.09031,6.18978 1.09031,6.18978 2.16916,4.48088 2.16916,4.48089 3.38492,3.38493 3.38493,3.38492 3.95791,2.01918 3.9579,2.01917 3.76554,0.94629 3.76553,0.94629 z m 2.38687,-7.03421 -3.47655,0.50028 -4,-1.88516 -4,-1.88516 -1.71181,-1.92776 -1.7118,-1.92777 -2.2882,-4.96347 L 466.5,816.5 v -13 -13 l 2.26286,-4.23538 2.26287,-4.23537 2.38136,-1.56033 2.38137,-1.56033 3.54135,-0.57469 3.54136,-0.57468 4.31441,2.10555 4.31442,2.10556 2.20705,3.26483 2.20704,3.26484 1.64936,6.43962 1.64935,6.43963 -0.38687,10.06037 -0.38687,10.06038 -1.96953,3.93547 -1.96953,3.93546 -2.52345,1.84064 -2.52345,1.84064 z M 595,840.95608 h 4.5 l 4.5,-2.03462 4.5,-2.03462 3.11704,-3.01071 3.11704,-3.01072 1.97825,3.812 1.97825,3.812 3.68792,1.40363 3.68792,1.40363 4.05369,-1.21451 4.05368,-1.21451 3.47674,-3.1862 3.47675,-3.1862 -0.64872,-1.69053 -0.64872,-1.69052 -2.3076,0.87734 -2.3076,0.87735 -2.11826,-0.55394 -2.11826,-0.55393 -0.47247,-2.13051 -0.47248,-2.13051 -0.26658,-21.07648 -0.26659,-21.07647 -2.48282,-3.62024 -2.48283,-3.62024 -4.01717,-2.2904 -4.01718,-2.2904 -8.5,-0.002 -8.5,-0.002 -6.60855,3.12034 -6.60854,3.12034 -2.51016,3.36874 -2.51015,3.36873 -0.67693,2.85589 -0.67693,2.85589 1.56868,2.39411 1.56869,2.39411 h 2.84058 2.84058 l 2.73634,-2.73633 2.73633,-2.73634 -0.51634,-3.84963 -0.51635,-3.84964 3.63061,-1.51696 3.63061,-1.51697 4.03577,0.54119 4.03576,0.54119 2.75,3.07752 2.75,3.07752 0.087,2.23423 0.087,2.23422 0.14827,5.39633 0.14828,5.39634 -10.98527,3.21679 -10.98526,3.21678 -2.55637,1.03851 -2.55637,1.03851 -3.22955,2.71749 -3.22954,2.71748 -1.46409,2.83123 -1.46408,2.83122 0.004,4.79966 0.004,4.79966 2.01692,3.30814 2.01692,3.30814 4.22934,1.9199 4.22934,1.9199 z m 8.32581,-10.3521 -3.82581,0.43401 -2.4489,-1.41063 -2.4489,-1.41062 -0.73082,-1.85837 -0.73081,-1.85837 -0.0666,-3 -0.0665,-3 1.95676,-3.20922 1.95676,-3.20922 7.2895,-2.13374 7.2895,-2.13374 1.5,-0.39543 1.5,-0.39543 -0.16567,9.23839 -0.16566,9.23839 -3.50853,2.33499 -3.50852,2.33499 z M 750.65883,841 h 4.26614 l 5.28752,-2.02318 5.28751,-2.02319 2,-1.74048 2,-1.74047 1.37244,-1.73634 1.37245,-1.73634 -1.18213,-1.42438 -1.18214,-1.42439 -4.19031,1.90242 -4.19031,1.90243 -3.73422,0.022 -3.73423,0.022 -3.26577,-2.91612 L 747.5,825.16777 747.19587,803.08388 746.89175,781 H 756.94587 767 v -4 -4 h -10 -10 v -9 -9 h -2.29911 -2.29911 l -1.18809,3.28558 -1.18808,3.28559 -3.14995,4.28326 -3.14995,4.28327 -5.36285,3.02661 L 723,776.19092 V 778.59546 781 h 4.45112 4.45112 l 0.29888,24.75 0.29888,24.75 2,2.73739 2,2.73739 4.94634,2.51261 L 746.39269,841 Z M 266.75,838.77307 284.5,838.5 l 0.30748,-2.15792 0.30749,-2.15792 -3.30749,-0.69024 -3.30748,-0.69024 -2.25,-1.42489 -2.25,-1.4249 V 805.47695 781 h 8.02475 8.02475 l 0.97525,-2.5651 L 292,775.8698 V 774.4349 773 h -9 -9 v -9.9349 -9.9349 l 0.96007,-2.52517 0.96006,-2.52516 2.03994,-2.03994 L 280,744 h 2.40539 2.40538 l 4.18923,3.5 4.18923,3.5 h 2.47113 2.47112 l 1.85298,-0.99168 1.85298,-0.99169 0.64785,-2.94966 0.64786,-2.94967 -1.14707,-2.14331 -1.14706,-2.14331 -3.38739,-1.41534 L 294.06424,736 h -3.99461 -3.9946 l -5.53418,2.0706 -5.53417,2.0706 -5.29577,4.84004 -5.29578,4.84004 -2.74006,5.03439 -2.74005,5.03438 -0.61215,6.55538 -0.61216,6.55538 -3.81313,1.02677 -3.81314,1.02677 -0.49398,0.79928 -0.49398,0.79929 0.56839,2.17354 0.56839,2.17354 h 3.90054 3.90054 l -0.26717,25.25 -0.26717,25.25 -4.25,1.46917 -4.25,1.46916 v 2.30391 2.30391 z M 341.5,839 H 359 v -2.46146 -2.46145 l -4.25,-1.09807 -4.25,-1.09806 -1.69885,-0.49163 -1.69885,-0.49163 -0.58918,-1.85635 -0.58918,-1.85634 1.03397,-28.84251 1.03396,-28.8425 0.0483,-2.5 0.0483,-2.5 6.79574,16 6.79573,16 8.3673,21.25 8.3673,21.25 h 1.84775 1.84776 l 2.5498,-5.75 2.5498,-5.75 12.02307,-28.5 12.02307,-28.5 1.23507,-3.5 1.23506,-3.5 0.63976,9 0.63975,9 1.09599,23.94124 1.09599,23.94124 -1.81781,1.32921 -1.81781,1.32922 -3.86447,1.04059 -3.86446,1.04059 0.58357,1.52074 0.58356,1.52074 v 0.93936 0.93935 l 19.75,-0.27114 19.75,-0.27114 0.29381,-2.05357 0.29381,-2.05357 -5.43542,-1.71336 -5.43542,-1.71336 -1.32855,-1.60081 -1.32855,-1.60081 -1.41265,-36.04857 -1.41264,-36.04856 1.85674,-1.35769 1.85675,-1.35768 3.68101,-0.58862 3.68101,-0.58862 0.45188,-2.36389 0.45189,-2.36389 -0.26988,-0.2735 -0.26987,-0.2735 -15.14313,0.5 -15.14313,0.5 -10.43456,25.5 -10.43456,25.5 -2.61824,6.24167 -2.61825,6.24166 -0.74069,-0.45777 -0.74069,-0.45777 -12.73464,-31.7839 L 358.8314,746.5 h -15.9163 -15.91631 l 6.1e-4,2.21146 6e-4,2.21145 4.25,1.09807 4.25,1.09806 1.63961,0.47283 1.6396,0.47283 0.46863,2.45145 0.46862,2.45145 -1.26976,33.91664 -1.26977,33.91664 -1.09789,2.05143 -1.09789,2.05143 -5.49058,1.73075 L 324,834.36524 V 836.68262 839 Z m 198.66667,0 H 558 v -0.91821 -0.91822 l 0.51483,-1.34161 0.51482,-1.34161 -5.26482,-1.24288 -5.26483,-1.24287 -1.31558,-1.7473 -1.31558,-1.7473 0.32124,-16.5 0.32124,-16.5 1.81076,-3.32878 1.81076,-3.32878 3.31546,-1.38529 3.31547,-1.38529 2.86812,0.84574 2.86811,0.84574 2.86747,1.33237 2.86748,1.33237 1.88252,-2.32482 L 572,785.77843 v -4.7149 -4.7149 l -2.58056,-2.42432 -2.58057,-2.42431 h -4.24728 -4.24727 l -3.77977,2.88297 -3.77977,2.88297 -2.25761,4.87281 -2.25761,4.87282 -0.50638,-7.07739 -0.50639,-7.07739 -0.96905,-0.96905 -0.96905,-0.96905 -7.40934,1.95617 -7.40935,1.95617 -3.75,0.6298 -3.75,0.6298 v 1.9354 1.9354 l 4.75,2.26928 4.75,2.26929 0.26946,22.37409 0.26947,22.37408 -1.13809,1.37132 -1.13809,1.37131 -3.88138,1.16289 L 521,834.31658 v 1.67504 1.67505 l 0.66667,0.66666 L 522.33333,839 Z M 661.75,838.77307 679.5,838.5 l 0.29474,-2.0607 0.29475,-2.06071 -4.79475,-1.43929 L 670.5,831.5 670,785 l -0.5,-46.5 -1.5,0.0987 -1.5,0.0987 -9.5,1.67748 -9.5,1.67748 -2.25,0.49288 -2.25,0.49288 v 1.53598 1.53598 l 5.5,2.43236 5.5,2.43236 v 39.48956 39.48955 l -2.25,1.40409 -2.25,1.40409 -2.75,0.63801 -2.75,0.63802 v 2.50403 2.50402 z M 703.56955,839 H 721 v -2.3237 -2.32369 l -4.75,-1.42631 -4.75,-1.4263 -0.5,-29.16828 -0.5,-29.16828 -0.69207,-0.69046 -0.69207,-0.69045 -12.05793,2.24758 L 685,776.2777 v 1.91657 1.91657 l 5.01777,2.08529 5.01776,2.08529 -0.26776,23.60929 L 694.5,831.5 690,833 l -4.5,1.5 0.31955,2.25 0.31955,2.25 z m -2.76989,-79.06768 2.29966,0.0677 2.75565,-1.425 2.75566,-1.42501 1.19468,-2.62205 1.19469,-2.62205 -0.0222,-2.70294 -0.0222,-2.70295 -1.72777,-2.13296 L 707.5,742.23408 705.31574,741.11704 703.13148,740 h -2.48901 -2.48902 l -3.00321,2.52703 -3.0032,2.52703 -0.64268,2.9261 -0.64268,2.92609 1.62171,3.41751 1.62172,3.41751 2.19744,1.06169 2.19745,1.06168 z m -470.54073,-55.30549 6.75893,-0.36107 6.40552,-3.15342 6.40551,-3.15343 3.23444,-3.68382 3.23444,-3.68383 2.60112,-5.54563 L 261.5,679.5 V 669 658.5 l -2.78069,-5.66136 -2.78069,-5.66137 -4.0969,-3.70131 -4.09691,-3.7013 -4.62241,-2.13733 L 238.5,635.5 l -9,0.0373 -9,0.0373 -4.71723,2.14196 -4.71723,2.14197 -5.01863,4.69434 -5.01862,4.69434 -2.69272,5.62638 -2.69272,5.62639 -0.39483,8.5 -0.39482,8.5 2.04271,5.81734 2.04271,5.81735 3.17887,4.01365 3.17887,4.01366 3.873,2.44491 3.873,2.44492 5.22882,1.46804 5.22882,1.46804 z m 0.59107,-7.63057 -5.35,-0.004 -3.11144,-1.89729 -3.11144,-1.8973 -2.15961,-3.0329 -2.15961,-3.03289 -1.59818,-4.31607 L 211.76153,678.5 211.63077,668 211.5,657.5 l 1.82185,-4.72156 1.82184,-4.72156 2.95759,-2.48865 2.95759,-2.48865 3.59311,-0.67407 3.59311,-0.67407 4.60353,1.90788 4.60353,1.90789 2.3004,3.41357 2.30041,3.41357 1.63494,5.56282 1.63494,5.56283 0.009,9 0.009,9 -1.26022,4.4396 -1.26022,4.43959 -3.31041,3.31041 L 236.2,697 Z m 67.23785,7.6303 5.58785,-0.4075 3.41215,-1.71971 3.41215,-1.71972 3.67001,-3.51465 3.67,-3.51465 0.66873,4.45939 0.66873,4.4594 0.79711,1.28975 0.79711,1.28975 11.61415,-2.70082 L 344,699.84697 v -1.83558 -1.83559 l -4.25,-0.70097 -4.25,-0.70096 -1.25,-1.00938 -1.25,-1.00938 v -28.31854 -28.31854 l -0.75,-0.44381 -0.75,-0.44382 -7,1.32666 -7,1.32666 -4.75,0.61941 -4.75,0.61942 v 1.7146 1.71461 l 4.25,1.97412 4.25,1.97412 0.27002,20.66167 0.27002,20.66167 -2.65542,2.08876 -2.65542,2.08875 -3.8646,1.15786 -3.8646,1.15787 -3.94977,-1.18339 -3.94978,-1.18338 -2.30022,-3.2249 L 291.5,685.5 291.20112,660.75 290.90224,636 h -1.58583 -1.58582 l -6.11529,0.9871 -6.1153,0.98711 -4.75,0.57417 -4.75,0.57417 v 1.86117 1.86118 l 3.50914,1.15812 3.50914,1.15812 1.51078,1.51077 1.51077,1.51078 -0.10345,20.74083 -0.10346,20.74084 1.53041,3.41782 1.53042,3.41782 1.30312,1.5 1.30313,1.5 1.74052,1.36458 1.74053,1.36458 3.75947,1.40245 3.75948,1.40245 z m 159.48401,0.30379 3.07186,0.0697 4.7665,-1.62411 4.7665,-1.62411 3.85067,-3.66305 3.85066,-3.66305 0.54732,2.03716 0.54732,2.03716 0.0137,3.35699 0.0136,3.35699 1.25,-0.47926 1.25,-0.47925 10.68337,-1.81895 10.68338,-1.81896 0.47274,-1.80778 0.47275,-1.80779 -0.66374,-0.41021 -0.66373,-0.41021 -3.76948,-0.70716 -3.76949,-0.70716 -0.9729,-1.81788 L 493,691.13148 v -45.18237 -45.18237 l -2.25,0.5925 -2.25,0.59249 -10.75,1.71797 -10.75,1.71796 v 1.81878 1.81878 l 5.5,2.43236 5.5,2.43236 v 11.66632 11.66632 l -3.75,-0.86129 -3.75,-0.86129 -7.5,0.005 -7.5,0.005 -5.64151,2.76562 -5.6415,2.76561 -4.19809,4.55438 -4.19809,4.55439 -2.6604,5.67514 L 430.5,661.5 l 0.0266,10.5 0.0266,10.5 2.77893,5.71391 2.77893,5.7139 4.60358,4.05224 4.60358,4.05223 4.59087,1.41421 4.59088,1.41421 z m 8.53026,-11.96949 -4.60212,-0.0391 -3.12088,-1.3583 -3.12088,-1.35829 -2.71342,-3.55748 -2.71342,-3.55747 -1.49091,-4.79509 -1.49092,-4.79509 -0.0438,-8.58666 -0.0438,-8.58666 1.993,-4.50548 1.99299,-4.50549 3.37605,-2.40786 L 457.5,642.5 l 6.5,0.006 6.5,0.006 3.5,2.05006 3.5,2.05007 v 20.90412 20.90411 l -3.39788,2.28984 -3.39789,2.2898 z m 60.98573,11.68978 5.58785,-0.43158 3.14865,-1.62823 3.14865,-1.62823 3.44568,-3.02535 3.44568,-3.02534 1.64509,3.46677 1.6451,3.46677 3.51994,1.67033 3.51995,1.67032 3.22622,-0.60524 3.22622,-0.60524 4.74344,-3.0082 4.74344,-3.0082 -0.34062,-2.22961 -0.34062,-2.22961 -0.97626,0.12178 -0.97626,0.12179 -2.50831,0.58661 -2.50831,0.5866 -1.49169,-0.92019 L 561.5,693.0764 561,670.2882 560.5,647.5 l -1.73491,-3.17116 -1.73491,-3.17116 -2.76509,-1.94004 -2.76509,-1.94003 -3.91464,-1.27069 -3.91463,-1.27069 -7.19627,0.54425 -7.19627,0.54425 -5.00736,2.15411 -5.00735,2.1541 -3.14844,3.24837 -3.14844,3.24837 -0.88137,3.07313 -0.88136,3.07314 1.17087,2.36202 1.17087,2.36203 3.21053,0.31212 3.21054,0.31211 2.5908,-2.59081 2.59081,-2.5908 -0.31831,-3.69469 -0.31832,-3.69468 2.49417,-1.26188 2.49417,-1.26189 3.70295,-0.0147 3.70294,-0.0147 2.62205,1.19469 2.62205,1.19468 1.48948,2.88033 1.48947,2.88033 0.57131,6.8145 0.5713,6.81451 -1.88578,0.56137 -1.88577,0.56138 -9.5,2.62923 -9.5,2.62924 -4.63193,2.51454 -4.63194,2.51454 -2.33511,3.15533 -2.33511,3.15533 -0.33725,6 -0.33724,6 2.07495,3.30814 2.07495,3.30814 4.22934,1.98297 4.22934,1.98296 z m 5.69427,-9.71403 -1.28212,-0.0634 -2.1917,-0.88283 -2.19171,-0.88282 -1.68713,-2.5749 -1.68714,-2.57489 0.56701,-4.22733 0.567,-4.22733 2.59701,-2.23386 2.59701,-2.23385 5.21483,-1.47555 5.21482,-1.47555 2.75,-0.65057 2.75,-0.65057 v 8.4341 8.43409 l -2.26365,2.12659 -2.26364,2.12658 -3.70424,1.54773 L 534.06424,695 Z m 68.28638,10.0195 3.5685,0.0439 4.99597,-1.48364 4.99597,-1.48365 3.93553,-3.43867 3.93553,-3.43866 -1.56287,-1.60485 -1.56288,-1.60485 -3.65501,1.52716 -3.655,1.52716 h -3.80962 -3.80961 l -2.32814,-1.63069 -2.32814,-1.6307 -1.22825,-3.1193 -1.22825,-3.11931 0.23596,-20 0.23596,-20 9.59793,-0.28621 L 617,644.92758 V 640.96379 637 l -9.75,10e-4 -9.75,10e-4 V 627.75108 618.5 l -2.10774,-0.30091 -2.10774,-0.30091 -2.60357,5.3215 -2.60356,5.32149 -3.22005,3.29354 -3.22004,3.29354 -4.31865,2.5309 L 573,640.19004 V 642.59502 645 h 4.5 4.5 v 23.03212 23.03212 l 1.37112,3.21788 1.37112,3.21788 2.53407,2.33524 2.53407,2.33525 3.84481,1.37086 3.84481,1.37086 z m 99.19043,-0.32928 6.75893,-0.36107 6.46492,-3.18267 6.46491,-3.18266 3.40558,-4.20022 3.40557,-4.20021 2.02591,-4.0246 2.02591,-4.02459 1.24685,-6.33761 1.24685,-6.3376 -1.20496,-6.53951 -1.20495,-6.53952 -1.58424,-3.09828 -1.58424,-3.09829 -2.91937,-3.7151 -2.91937,-3.71509 -6.67259,-3.28491 -6.67259,-3.2849 H 700.02103 691.5 l -5.62001,2.63517 -5.62001,2.63516 -4.12031,3.72245 -4.1203,3.72245 -3.16181,6.42254 -3.1618,6.42254 -0.46844,7.29923 -0.46844,7.29923 1.61185,5.54456 1.61185,5.54456 3.25871,4.85052 3.25871,4.85052 4.1403,2.76796 4.1403,2.76795 5.3597,1.50153 5.3597,1.50154 z m 3.2646,-7.65747 -3.02353,0.65658 -3.81275,-0.92715 -3.81275,-0.92715 -3.39255,-3.49319 -3.39254,-3.49319 -1.79471,-5.14263 L 682.5,678.5 v -12 -12 l 2.43409,-4.24991 2.43409,-4.24991 4.34879,-2.10521 4.34879,-2.10522 3.35537,0.62948 3.35536,0.62947 3.36176,2.22709 3.36175,2.2271 2.23906,4.50573 2.23907,4.50573 1.11564,5.99282 1.11564,5.99283 -0.42828,8 -0.42829,8 -2.08236,4.66448 -2.08236,4.66447 -2.32053,1.24192 -2.32054,1.24191 z m 144.12634,7.62736 8.14988,-0.3629 5.17499,-2.81659 5.17499,-2.81658 2.52033,-4.30062 2.52033,-4.30063 0.50551,-3.76885 0.50551,-3.76885 -1.12511,-4.17833 -1.1251,-4.17833 -3.11171,-3.1117 -3.11171,-3.11171 -9.61389,-4.84819 -9.61389,-4.84819 -2.31126,-2.18865 -2.31126,-2.18866 -0.94908,-2.49625 -0.94907,-2.49626 1.26944,-2.64861 1.26945,-2.6486 2.82595,-1.35444 2.82595,-1.35445 3.16494,0.59825 3.16494,0.59824 3.13171,1.91046 3.13172,1.91045 2.36828,5.04565 2.36829,5.04564 2.56381,0.041 2.56381,0.041 -0.35224,-6.25 -0.35224,-6.25 -0.49086,-3.16459 -0.49086,-3.16459 -7.08323,-1.19474 -7.08323,-1.19474 -6.13748,0.39452 -6.13748,0.39453 -4.77719,2.31717 -4.77719,2.31718 -2.71131,3.55471 -2.71131,3.55471 -0.29987,7.09292 -0.29988,7.09292 2.31423,4 2.31422,4 11.96882,6.18379 11.96883,6.18379 2.25532,2.62198 2.25533,2.62197 v 2.76992 2.76992 l -2.25,2.05938 -2.25,2.05938 -2.29217,0.69571 -2.29218,0.69571 -4.07395,-0.68829 -4.07396,-0.6883 -3.68202,-3.32648 -3.68202,-3.32649 -2.37279,-5.066 L 828.65813,680 H 826.82906 825 l 0.0309,3.25 0.0309,3.25 0.9617,7.40924 0.9617,7.40924 0.5252,0.5252 0.52519,0.52519 5.73223,1.29538 5.73223,1.29537 z M 145.5,703 H 168 v -2.31514 -2.31515 l -6.68964,-1.93485 -6.68964,-1.93486 -0.83859,-3.2486 -0.83859,-3.2486 0.27823,-13.7514 L 153.5,660.5 l 8.5,-0.29505 8.5,-0.29506 2.18007,0.54656 2.18008,0.54655 1.56992,1.56993 1.56993,1.56993 v 2.81507 2.81507 l 3,0.44031 3,0.4403 V 656.82681 643 h -3 -3 v 2.27749 2.2775 l -1.5567,2.2225 L 174.88659,652 h -10.96747 -10.96748 l 0.27418,-16.75 0.27418,-16.75 11.70705,-0.28136 11.70706,-0.28137 3.61868,1.51198 3.61868,1.51198 2.67426,6.06014 2.67427,6.06013 2.48109,-0.29075 2.48109,-0.29075 -0.26822,-8.5 -0.26822,-8.5 -0.54233,-2.75 -0.54232,-2.75 H 157.42054 122 v 2.32825 2.32825 l 5.17499,1.19453 5.17499,1.19453 1.32501,1.09967 L 135,619.24489 V 656.5 693.75511 l -1.2633,1.04845 -1.2633,1.04844 -4.7367,1.19271 L 123,698.23743 V 700.61871 703 Z m 220.38337,0 h 16.88337 l 0.57697,-2.20633 0.57696,-2.20633 -0.21033,-0.068 -0.21034,-0.068 -4.5,-1.47568 -4.5,-1.47568 -0.26888,-22.15677 -0.26889,-22.15677 3.67992,-2.27431 3.67991,-2.27431 5.1754,-0.42919 5.1754,-0.42918 3.24235,1.67668 3.24235,1.67669 1.42122,3.40146 1.42122,3.40146 v 19.40968 19.40967 l -1.34531,1.11651 -1.34531,1.1165 -2.99811,0.59963 -2.99811,0.59962 0.46,2.40631 0.45999,2.40632 h 16.2668 16.26679 l 0.57697,-2.20633 0.57696,-2.20633 -0.21033,-0.068 L 426.5,698.45136 422,696.97568 417.5,695.5 417,672 l -0.5,-23.5 -2.05158,-4 -2.05158,-4 -5.37774,-2.75 -5.37773,-2.75 h -4.13918 -4.13919 l -4.9315,1.48895 -4.9315,1.48895 -4.5,3.60155 -4.5,3.60156 -0.82627,-5.09051 L 372.84745,635 h -1.7745 -1.7745 l -2.9774,1.03793 -2.97741,1.03793 -7.41375,1.24131 -7.41376,1.24131 -0.32696,1.69776 -0.32696,1.69777 4.81889,2.28722 4.8189,2.28723 0.26874,23.36073 0.26873,23.36073 -1.11922,1.34858 -1.11922,1.34858 -3.39951,0.63775 L 349,698.22258 V 700.61129 703 Z m 277.73326,0 H 661 v -2.45469 -2.45468 l -3.54907,-0.66581 -3.54906,-0.66581 -1.45094,-1.45093 L 651,693.85714 v -27.84678 -27.84679 l -0.54705,-1.42559 -0.54706,-1.4256 -10.20294,1.91774 -10.20295,1.91775 -2.25,0.44511 -2.25,0.44512 v 1.78248 1.78248 l 5.01828,2.12017 5.01829,2.12016 -0.26829,23.82831 L 634.5,695.5 l -4.5,1.47568 -4.5,1.47568 -0.21034,0.068 -0.21033,0.068 0.57696,2.20633 0.57697,2.20633 z m 113,0 H 774 l -0.005,-2.25 -0.005,-2.25 -4.74475,-1.5 -4.74475,-1.5 -0.26888,-22.15677 -0.26889,-22.15677 3.71062,-2.29329 3.71062,-2.29329 5.66834,-0.41001 5.66834,-0.41001 2.19344,1.17389 2.19343,1.17389 1.94275,3.18618 1.94275,3.18618 0.004,20.70986 0.004,20.70986 -4,1.19843 -4,1.19843 V 700.65829 703 h 16.5 16.5 v -2.28083 -2.28084 L 811.75,696.96917 807.5,695.5 807,672 l -0.5,-23.5 -2.09728,-3.99853 -2.09727,-3.99853 -5.26692,-2.75147 L 791.77162,635 h -4.87509 -4.87508 l -5.02582,1.90966 -5.02582,1.90966 -3.70057,3.24914 -3.70056,3.24914 -1.05532,-4.9088 -1.05532,-4.9088 -2.47902,0.14134 -2.47902,0.14134 -9.5,1.93675 -9.5,1.93676 -0.32777,1.695 -0.32777,1.69501 5.09523,2.11748 5.09523,2.11748 -0.26746,24.10942 L 747.5,695.5 l -4.5,1.47568 -4.5,1.47568 -0.21034,0.068 -0.21033,0.068 0.57696,2.20633 0.57697,2.20633 z m -113.1647,-79.55722 2.95192,-0.47355 2.28277,-2.14455 2.28276,-2.14454 0.60381,-3.21859 0.60381,-3.21859 -1.59885,-3.09183 -1.59885,-3.09184 -1.92391,-1.02965 L 645.13148,604 H 642 638.86852 l -1.92391,1.02964 -1.92391,1.02965 -1.59885,3.09184 -1.59885,3.09183 0.60381,3.21859 0.60381,3.21859 2.23469,2.03265 2.23469,2.03265 1.5,0.58544 1.5,0.58544 z M 514.5,566.51137 l 3,-1.26254 2.75,-1.28493 2.75,-1.28493 V 498.90458 435.1302 l -0.95704,-2.5172 -0.95704,-2.51721 -2.9933,-1.54789 -2.9933,-1.5479 -2.79966,0.004 -2.79966,0.004 -3.18863,1.94424 -3.18864,1.94424 -1.05572,3.80202 -1.05573,3.80202 0.01,62.05073 0.01,62.05074 5.23456,2.58622 5.23457,2.58622 z M 478.25,551.94119 479,552 l -0.004,-58.25 -0.004,-58.25 -1.87799,-3.07969 -1.87799,-3.07969 -3.1016,-1.28473 -3.10161,-1.28472 -3.35673,0.62972 -3.35674,0.62973 -2.40993,2.56466 -2.40993,2.56466 -0.27504,54.47307 -0.27504,54.47307 8.77504,3.96379 8.77504,3.96379 1.5,0.92436 1.5,0.92437 z m 78.5,-4.87121 10.75,-4.74317 0.26298,-53.41341 0.26297,-53.4134 -1.15383,-2.79716 -1.15383,-2.79716 -3.02189,-1.56268 -3.02189,-1.56268 -4.08726,0.5481 -4.08725,0.54809 -2.75,3.07752 -2.75,3.07752 v 58.89081 58.8908 z M 433.75,531.94287 435,532 v -62 -62 h 77.5 77.5 v 62 62 h 0.86959 0.86959 l 9.88041,-4.38014 9.88041,-4.38014 0.0756,-73.36986 0.0756,-73.36986 0.71713,-4.44312 0.71713,-4.44313 2.66976,-4.90522 2.66975,-4.90522 4.71971,-4.24343 4.71972,-4.24343 5.67886,-1.78622 5.67887,-1.78622 6.16838,0.49513 6.16837,0.49514 3.97059,2.04461 3.97059,2.04461 3.40103,3.33825 3.40103,3.33825 1.82701,4 1.82701,4 0.022,5.79966 0.022,5.79966 -1.48002,2.86204 -1.48002,2.86205 -2.65484,2.08829 L 661.73028,387 H 657.36514 653 l -2,-2 -2,-2 0.0354,-0.75 0.0354,-0.75 1.34416,-2.42642 1.34417,-2.42641 -0.86581,-3.07359 -0.86581,-3.07358 -2.12458,-1.75 -2.12457,-1.75 h -4.75436 -4.75435 l -2.76049,2.1714 -2.76049,2.1714 -1.85241,4.0786 -1.85241,4.0786 -0.022,5.05366 -0.022,5.05365 2.59023,5.19792 2.59023,5.19791 3.60377,2.97053 3.60376,2.97053 4.53881,1.54652 4.5388,1.54653 5.17159,0.60782 5.17158,0.60782 6.84561,-2.12508 6.84562,-2.12509 4.6674,-3.45113 4.66741,-3.45114 3.14228,-4.56715 3.14228,-4.56714 1.94031,-5.63963 L 692,378.6869 v -7.16195 -7.16195 l -1.59814,-5.4315 -1.59814,-5.4315 -3.32974,-5.51208 -3.32974,-5.51209 -4.82212,-4.90828 -4.82212,-4.90828 -7.5,-3.57633 -7.5,-3.57632 9.5,-0.53752 9.5,-0.53751 3.80645,-1.85652 3.80644,-1.85652 2.69356,-3.53143 2.69355,-3.53144 v -4.29212 -4.29213 l -1.78571,-1.78572 -1.7857,-1.78571 -76.42806,-0.0471 -76.42806,-0.0471 -0.72272,-0.72272 -0.72272,-0.72272 35.49791,-35.73019 35.49791,-35.73018 3.56545,-7 3.56544,-7 1.82106,-5.5 1.82105,-5.5 -0.0921,-9 -0.0922,-9 -2.47859,-6.74155 -2.4786,-6.74155 -3.37718,-5.6256 -3.37718,-5.62561 -5.35771,-4.80093 -5.35771,-4.80092 -5.64229,-2.9806 -5.64229,-2.98059 -4.99534,-1.67275 -4.99533,-1.67276 -8.50467,0.0128 -8.50466,0.0128 -6.5,2.02235 -6.5,2.02234 -6,3.5913 -6,3.5913 -7.69447,7.61635 -7.69446,7.61635 -9.33752,-8.92672 -9.33752,-8.92673 -6.46801,-3.11886 -6.46802,-3.11886 -4.72515,-1.13389 -4.72515,-1.13388 -7.82664,-0.0838 -7.82663,-0.0838 -4.44822,1.18569 -4.44821,1.18569 -7.72971,4.00711 -7.72971,4.00711 -5.95165,6.36233 -5.95165,6.36233 -3.04835,6.38724 -3.04835,6.38724 -1.62362,6.89955 -1.62363,6.89955 0.5039,7.5 0.5039,7.5 2.54523,6.72505 2.54523,6.72505 3.97526,5.77495 3.97526,5.77495 33.57895,33.4944 L 491,298.48881 V 299.7444 301 l -18.75,0.0292 -18.75,0.0292 -58.39372,0.40021 -58.39372,0.40021 -1.33396,1.33396 -1.33396,1.33396 -0.57171,2.9866 -0.57171,2.98661 2.29939,4.5 2.29939,4.5 5.42931,2.75 5.42932,2.75 H 356.17931 364 v 0.78428 0.78428 l -6.25,2.93778 -6.25,2.93777 -5.28736,5.45109 -5.28735,5.45108 -4.21265,8.50147 -4.21264,8.50147 v 10.59642 10.59641 l 3.24128,6.58398 3.24128,6.58397 5.04065,4.71495 5.04066,4.71494 5.21806,2.35518 5.21807,2.35518 5.59939,0.67128 5.59938,0.67128 6.13458,-1.57161 6.13458,-1.5716 3.93607,-2.60477 3.93607,-2.60476 2.50524,-3.78569 2.50525,-3.78568 1.16927,-4.34234 1.16927,-4.34234 -0.62104,-3.88377 -0.62104,-3.88378 -1.98332,-3.88763 -1.98332,-3.88763 -2.94053,-1.5206 L 387.09932,367 h -4.12658 -4.12659 l -3.03189,3.0319 -3.0319,3.03189 0.54822,2.71811 0.54822,2.7181 0.70706,2.90632 0.70706,2.90632 -1.83759,1.34368 L 371.61774,387 h -4.34759 -4.3476 l -4.15603,-3.87671 -4.15603,-3.8767 -0.41031,-6.4437 -0.4103,-6.44369 2.24692,-5.2231 2.24692,-5.2231 4.06446,-3.47903 4.06446,-3.47903 4.97518,-1.47747 L 376.363,346 h 5.30777 5.30778 l 5.06981,1.92638 5.06981,1.92637 3.54608,2.70474 3.54609,2.70473 2.93506,4.61889 2.93505,4.61889 1.48891,5.10612 1.4889,5.10613 0.22087,74.32066 0.22087,74.32066 9.5,4.26608 9.5,4.26608 z M 512.4096,385 h -76.47237 l -0.38679,-1.25 -0.38679,-1.25 -0.50517,-7.75608 -0.50517,-7.75607 78.1586,0.25607 78.1586,0.25608 -0.33259,8 -0.33259,8 -0.46168,0.75 -0.46168,0.75 z m 1.1769,-41.33016 -88.0865,0.16985 -1.5,-0.57199 -1.5,-0.57198 -5.44721,-4.95444 -5.4472,-4.95445 -6.3028,-3.10805 L 399,326.57074 V 325.78537 325 h 113 113 l -0.0119,0.75 -0.0119,0.75 -5.89244,3.23619 -5.89243,3.23619 -5.75921,5.26381 -5.7592,5.26381 z M 512.61236,287 h -1.14869 l -36.62905,-36.75 -36.62906,-36.75 -2.34561,-4.5 -2.34561,-4.5 -0.002,-9 -0.002,-9 2.1006,-4.55081 2.1006,-4.5508 3.21274,-3.65911 3.21274,-3.65911 5.68161,-2.79008 L 455.5,164.5 h 8.02076 8.02076 l 4.94275,2.54057 4.94274,2.54057 14.5771,15.88963 14.57711,15.88964 1.10811,0.36937 1.10811,0.36937 14.85128,-16.13482 14.85128,-16.13481 5,-2.62992 5,-2.62991 7.5,-0.0349 7.5,-0.0348 5.57104,2.61274 5.57104,2.61275 3.27691,3.38725 3.27691,3.38726 2.65205,5.5 2.65205,5.5 -0.0325,8 -0.0325,8 -2.96747,5.79144 L 584.5,215.08288 549.13053,251.04144 513.76105,287 Z"
         id="path3" />
      <path
         style="fill:#5a422d"
         d="m 786.95166,872 h -4.04257 L 780.45455,869.54545 778,867.09091 v -2.6112 -2.61119 l 0.99232,-1.85418 0.99233,-1.85417 3.31674,-1.09462 3.31675,-1.09463 3.35593,1.16989 3.35593,1.16988 1.73786,-2.14617 1.73787,-2.14617 3.07454,-7.38539 3.07454,-7.38538 L 791.41726,811.37379 779.87971,783.5 776.72763,780.75 773.57555,778 H 772.28777 771 v -2.5 -2.5 h 15.88337 15.88337 l 0.54426,2.08126 0.54426,2.08127 -3.35925,1.40358 -3.35925,1.40359 -0.56591,0.91567 -0.56592,0.91567 7.55521,19.82382 7.55521,19.82383 0.31678,0.31677 0.31678,0.31678 7.13385,-19.29112 7.13385,-19.29112 -0.008,-1.58994 L 826,780.32012 822,779 818,777.67988 V 775.33994 773 h 13 13 v 2.37868 2.37868 l -3.07746,1.27473 -3.07747,1.27472 -1.35834,2.0966 -1.35835,2.09659 -14.64887,33.5 -14.64887,33.5 -3.53473,6.74152 -3.53473,6.74152 -3.88347,3.50848 L 790.99424,872 Z M 211.5,840.5044 l -6,0.4171 -3.76553,-0.94835 -3.76554,-0.94835 -3.73446,-1.91442 -3.73447,-1.91441 -3.73348,-3.74813 -3.73347,-3.74813 -2.01052,-4.15317 -2.01052,-4.15318 -1.14941,-5.72335 -1.14942,-5.72335 1.03694,-6.25772 1.03694,-6.25773 2.16307,-4.60173 2.16307,-4.60173 3.48537,-4.07188 3.48538,-4.07187 6.20802,-3.02739 6.20803,-3.02739 5.77766,-0.65554 5.77767,-0.65555 6.28505,1.70129 6.28504,1.70128 4.93729,3.72729 4.93729,3.72729 3.5,6.86154 3.5,6.86153 v 9.62185 9.62185 l -3.28057,6.6638 -3.28058,6.66379 -4.97522,4.47315 -4.97523,4.47316 -4.7442,1.63567 -4.7442,1.63568 z m 2.47655,-6.9519 3.47655,-0.50029 2.52345,-1.88063 2.52345,-1.88064 1.83076,-3.12614 1.83076,-3.12613 0.67517,-6.76933 0.67517,-6.76934 -0.75151,-7.98081 -0.7515,-7.98082 -2.56617,-5.24506 -2.56617,-5.24505 -2.90291,-2.06706 -2.90292,-2.06706 -4.78534,-0.51633 -4.78534,-0.51633 -3.20966,2.02003 -3.20967,2.02003 -2.17912,4.27144 -2.17913,4.27144 -0.494,8.66411 -0.49401,8.66411 1.2414,6.57915 1.24139,6.57914 2.90395,4.57904 2.90394,4.57905 4.23745,1.97188 4.23746,1.97188 z m 269.61313,7.03421 -6.08968,0.33067 -3.76553,-0.94629 -3.76554,-0.94629 -3.9579,-2.01917 -3.95791,-2.01918 -3.38493,-3.38492 -3.38492,-3.38493 -2.16916,-4.48089 -2.16916,-4.48088 -1.09031,-6.18978 -1.09031,-6.18978 1.20621,-6.18764 1.2062,-6.18763 3.06973,-5.78522 3.06972,-5.78522 3.54628,-3.11367 3.54627,-3.11366 5.54563,-2.60032 5.54563,-2.60032 8.02103,-7.9e-4 8.02102,-8e-4 6.78461,3.34005 6.78461,3.34005 3.44573,4.65995 3.44572,4.65995 2.12647,6.85018 2.12647,6.85019 -0.66089,6.45066 -0.66089,6.45066 -1.94787,5.19916 -1.94786,5.19915 -4.45007,5.08247 -4.45007,5.08247 -6.22932,2.79555 -6.22932,2.79555 z m 2.38687,-7.03421 3.47655,-0.50029 2.52345,-1.84064 2.52345,-1.84064 1.96953,-3.93546 1.96953,-3.93547 0.38687,-10.06038 0.38687,-10.06037 -1.64935,-6.43963 -1.64936,-6.43962 -2.20704,-3.26484 -2.20705,-3.26483 -4.31442,-2.10556 -4.31441,-2.10555 -3.54136,0.57468 -3.54135,0.57469 -2.38137,1.56033 -2.38136,1.56033 -2.26287,4.23537 L 466.5,790.5 v 13 13 l 2.28819,4.96346 2.2882,4.96347 1.7118,1.92777 1.71181,1.92776 4,1.88516 4,1.88516 z M 595,840.95608 h -4.5 l -4.22934,-1.9199 -4.22934,-1.9199 -2.01692,-3.30814 -2.01692,-3.30814 -0.004,-4.79966 -0.004,-4.79966 1.46408,-2.83122 1.46409,-2.83123 3.22954,-2.71748 3.22955,-2.71749 2.55637,-1.03851 2.55637,-1.03851 10.98526,-3.21678 10.98527,-3.21679 -0.14828,-5.39634 -0.14827,-5.39633 -0.087,-2.23422 -0.087,-2.23423 -2.75,-3.07752 -2.75,-3.07752 -4.03576,-0.54119 -4.03577,-0.54119 -3.63061,1.51697 -3.63061,1.51696 0.51635,3.84964 0.51634,3.84963 -2.73633,2.73634 -2.7358,2.73633 h -2.84058 -2.84058 l -1.56869,-2.39411 -1.56868,-2.39411 0.67693,-2.85589 0.67693,-2.85589 2.51015,-3.36873 2.51016,-3.36874 6.60854,-3.12034 6.60855,-3.12034 8.5,0.002 8.5,0.002 4.01718,2.2904 4.01717,2.2904 2.48283,3.62024 2.48282,3.62024 0.26659,21.07647 0.26658,21.07648 0.47248,2.13051 0.47247,2.13051 2.11826,0.55393 2.11826,0.55394 2.3076,-0.87735 2.3076,-0.87734 0.64872,1.69052 0.64872,1.69053 -3.47675,3.1862 -3.47674,3.1862 -4.05368,1.21451 -4.05369,1.21451 -3.68792,-1.40363 -3.68792,-1.40363 -1.97825,-3.812 -1.97825,-3.812 -3.11704,3.01072 -3.11704,3.01071 -4.5,2.03462 -4.5,2.03462 z m 8.32581,-10.3521 3.82581,-0.434 3.50852,-2.33499 3.50853,-2.33499 0.16566,-9.23839 0.16567,-9.23839 -1.5,0.39543 -1.5,0.39543 -7.2895,2.13374 -7.2895,2.13374 -1.95676,3.20922 -1.95676,3.20922 0.0665,3 0.0666,3 0.73081,1.85837 0.73082,1.85837 2.4489,1.41062 2.4489,1.41063 z M 750.65883,841 h -4.26614 l -4.94635,-2.51261 -4.94634,-2.51261 -2,-2.73739 -2,-2.73739 -0.29888,-24.75 L 731.90224,781 H 727.45112 723 v -2.40454 -2.40454 l 5.36286,-3.02661 5.36285,-3.02661 3.14995,-4.28327 3.14995,-4.28326 1.18808,-3.28559 L 742.40178,755 H 744.70089 747 v 9 9 h 10 10 v 4 4 h -10.05413 -10.05412 l 0.30412,22.08388 0.30413,22.08389 3.26578,2.91611 3.26577,2.91612 3.73423,-0.022 3.73422,-0.022 4.19031,-1.90243 4.19031,-1.90242 1.18214,1.42439 1.18213,1.42438 -1.37245,1.73634 -1.37244,1.73634 -2,1.74047 -2,1.74048 -5.28751,2.02319 L 754.92497,841 Z M 266.75,838.77307 249,839.04615 v -2.30391 -2.30391 l 4.25,-1.46916 4.25,-1.46917 0.26717,-25.25 0.26717,-25.25 h -3.90054 -3.90054 l -0.56839,-2.17354 -0.56839,-2.17354 0.49398,-0.79929 0.49398,-0.79928 3.81314,-1.02677 3.81313,-1.02677 0.61216,-6.55538 0.61215,-6.55538 2.74005,-5.03438 2.74006,-5.03439 5.29578,-4.84004 5.29577,-4.84004 5.53417,-2.0706 5.53418,-2.0706 h 3.9946 3.99461 l 3.38739,1.41534 3.38739,1.41534 1.14706,2.14331 1.14707,2.14331 -0.64786,2.94967 -0.64785,2.94966 -1.85298,0.99169 L 298.13148,751 h -2.47112 -2.47113 L 289,747.5 284.81077,744 H 282.40539 280 l -2.03993,2.03993 -2.03994,2.03994 -0.96006,2.52516 L 274,753.1302 V 763.0651 773 h 9 9 v 1.4349 1.4349 l -0.97525,2.5651 L 290.0495,781 H 282.02475 274 v 24.47695 24.47694 l 2.25,1.4249 2.25,1.42489 3.30748,0.69024 3.30749,0.69024 -0.30749,2.15792 L 284.5,838.5 Z M 341.5,839 H 324 v -2.31738 -2.31738 l 5.49057,-1.73075 5.49058,-1.73075 1.09789,-2.05143 1.09789,-2.05143 1.26977,-33.91664 1.26976,-33.91664 -0.46862,-2.45145 -0.46863,-2.45145 -1.6396,-0.47283 -1.63961,-0.47283 -4.25,-1.09806 -4.25,-1.09807 -6e-4,-2.21145 -6.1e-4,-2.21146 h 15.91631 15.9163 l 12.73463,31.78389 12.73464,31.7839 0.74069,0.45777 0.74069,0.45777 2.61825,-6.24166 2.61824,-6.24167 10.43456,-25.5 10.43456,-25.5 15.14313,-0.5 15.14313,-0.5 0.26987,0.2735 0.26988,0.2735 -0.45189,2.36389 -0.45188,2.36389 -3.68101,0.58862 -3.68101,0.58862 -1.85675,1.35768 -1.85674,1.35769 1.41264,36.04856 1.41265,36.04857 1.32855,1.60081 1.32855,1.60081 5.43542,1.71336 5.43542,1.71336 -0.29381,2.05357 L 446.5,838.5 426.75,838.77114 407,839.04228 v -0.93935 -0.93936 l -0.58356,-1.52074 -0.58357,-1.52074 3.86446,-1.04059 3.86447,-1.04059 1.81781,-1.32922 1.81781,-1.32921 -1.09599,-23.94124 -1.09599,-23.94124 -0.63975,-9 -0.63976,-9 -1.23506,3.5 -1.23507,3.5 -12.02307,28.5 -12.02307,28.5 -2.5498,5.75 -2.5498,5.75 h -1.84776 -1.84775 l -8.3673,-21.25 -8.3673,-21.25 -6.79573,-16 -6.79574,-16 -0.0483,2.5 -0.0483,2.5 -1.03396,28.8425 -1.03397,28.84251 0.58918,1.85634 0.58918,1.85635 1.69885,0.49163 1.69885,0.49163 4.25,1.09806 4.25,1.09807 V 836.53854 839 Z m 198.66667,0 H 522.33333 L 521.66667,838.33333 521,837.66667 v -1.67505 -1.67504 l 3.88137,-1.16289 3.88138,-1.16289 1.13809,-1.37131 1.13809,-1.37132 -0.26947,-22.37408 L 530.5,784.5 525.75,782.23071 521,779.96143 v -1.9354 -1.9354 l 3.75,-0.6298 3.75,-0.6298 7.40935,-1.95617 7.40934,-1.95617 0.96905,0.96905 0.96905,0.96905 0.50639,7.07739 0.50638,7.07739 2.25761,-4.87282 2.25761,-4.87281 3.77977,-2.88297 3.77977,-2.88297 h 4.24727 4.24728 l 2.58057,2.42431 2.58056,2.42432 v 4.7149 4.7149 l -1.88253,2.32483 -1.88252,2.32482 -2.86748,-1.33237 -2.86747,-1.33237 -2.86811,-0.84574 -2.86812,-0.84574 -3.31547,1.38529 -3.31546,1.38529 -1.81076,3.32878 -1.81076,3.32878 -0.32124,16.5 -0.32124,16.5 1.31558,1.7473 1.31558,1.7473 5.26483,1.24287 5.26482,1.24288 -0.51482,1.34161 L 558,837.16357 V 838.08179 839 Z M 661.75,838.77307 644,839.04615 v -2.50402 -2.50403 l 2.75,-0.63802 2.75,-0.63801 2.25,-1.40409 2.25,-1.40409 v -39.48955 -39.48956 l -5.5,-2.43236 -5.5,-2.43236 v -1.53598 -1.53598 l 2.25,-0.49288 2.25,-0.49288 9.5,-1.67748 9.5,-1.67748 1.5,-0.0987 1.5,-0.0987 0.5,46.5 0.5,46.5 4.79474,1.4393 4.79475,1.43929 -0.29475,2.06071 L 679.5,838.5 Z M 703.56955,839 H 686.1391 l -0.31955,-2.25 -0.31955,-2.25 4.5,-1.5 4.5,-1.5 0.26777,-23.60929 0.26776,-23.60929 -5.01776,-2.08529 L 685,780.11084 v -1.91657 -1.91657 l 12.05793,-2.24759 12.05793,-2.24758 0.69207,0.69045 0.69207,0.69046 0.5,29.16828 0.5,29.16828 4.75,1.4263 4.75,1.42631 V 836.6763 839 Z m -2.76989,-79.06768 -2.29966,-0.0677 -2.19745,-1.06168 -2.19744,-1.06169 -1.62172,-3.41751 -1.62171,-3.41751 0.64268,-2.92609 0.64268,-2.9261 3.0032,-2.52703 L 698.15345,740 h 2.48902 2.48901 l 2.18426,1.11704 2.18426,1.11704 1.72776,2.13296 1.72777,2.13296 0.0222,2.70295 0.0222,2.70294 -1.19469,2.62205 -1.19468,2.62205 -2.75566,1.42501 -2.75565,1.425 z m -470.54073,-55.30549 -6.75893,0.36108 -5.22882,-1.46804 -5.22882,-1.46804 -3.873,-2.44492 -3.873,-2.44491 -3.17887,-4.01366 -3.17887,-4.01365 -2.04271,-5.81735 -2.04271,-5.81734 0.39482,-8.5 0.39483,-8.5 2.69272,-5.62639 2.69272,-5.62638 5.01862,-4.69434 5.01863,-4.69434 4.71723,-2.14197 4.71723,-2.14196 9,-0.0373 9,-0.0373 4.6224,2.13733 4.62241,2.13733 4.09691,3.7013 4.0969,3.70131 2.78069,5.66137 L 261.5,658.5 v 10.5 10.5 l -2.60111,5.54563 -2.60112,5.54563 -3.23444,3.68383 -3.23444,3.68382 -6.40551,3.15343 -6.40552,3.15342 z m 0.59107,-7.63057 5.35,0.004 3.3104,-3.3104 3.31041,-3.31041 1.26022,-4.43959 1.26022,-4.4396 -0.009,-9 -0.009,-9 -1.63494,-5.56283 -1.63494,-5.56282 -2.30041,-3.41357 -2.3004,-3.41357 -4.60353,-1.90789 -4.60353,-1.90788 -3.59311,0.67407 -3.59311,0.67407 -2.95759,2.48865 -2.95759,2.48865 -1.82184,4.72156 -1.82226,4.7213 0.13077,10.5 0.13076,10.5 1.59819,4.31607 1.59818,4.31607 2.15961,3.03289 2.15961,3.0329 3.11144,1.8973 3.11144,1.89729 z m 67.23785,7.6303 -5.58785,0.4075 -3.75948,-1.40245 -3.75947,-1.40245 -1.74053,-1.36458 L 281.5,699.5 l -1.30313,-1.5 -1.30312,-1.5 -1.53042,-3.41782 -1.53041,-3.41782 0.10346,-20.74084 0.10345,-20.74083 -1.51077,-1.51078 -1.51078,-1.51077 -3.50914,-1.15812 L 266,642.8449 v -1.86118 -1.86117 l 4.75,-0.57417 4.75,-0.57417 6.1153,-0.98711 6.11529,-0.9871 h 1.58582 1.58583 l 0.29888,24.75 0.29888,24.75 2.30023,3.22491 2.30022,3.2249 3.94978,1.18338 3.94977,1.18339 3.8646,-1.15787 3.8646,-1.15786 2.65542,-2.08875 2.65542,-2.08876 -0.27002,-20.66167 L 316.5,646.5 312.25,644.52588 308,642.55176 v -1.71461 -1.7146 l 4.75,-0.61942 4.75,-0.61941 7,-1.32666 7,-1.32666 0.75,0.44382 0.75,0.44381 v 28.31854 28.31854 l 1.25,1.00938 1.25,1.00938 4.25,0.70096 4.25,0.70097 v 1.83559 1.83558 l -11.61416,2.70083 -11.61415,2.70082 -0.79711,-1.28975 -0.79711,-1.28975 -0.66873,-4.4594 -0.66873,-4.45939 -3.67,3.51465 -3.67001,3.51465 -3.41215,1.71972 -3.41215,1.71971 z m 159.48401,0.30379 -3.07186,-0.0697 -4.59088,-1.41421 -4.59087,-1.41421 -4.60358,-4.05223 -4.60358,-4.05224 -2.77893,-5.7139 -2.77893,-5.71391 -0.0266,-10.5 -0.0266,-10.5 2.66041,-5.67515 2.6604,-5.67514 4.19809,-4.55439 4.19809,-4.55438 5.6415,-2.76561 5.64151,-2.76562 7.5,-0.005 7.5,-0.005 3.75,0.86129 3.75,0.86129 V 625.55592 613.8896 l -5.5,-2.43236 -5.5,-2.43236 v -1.81878 -1.81878 l 10.75,-1.71796 10.75,-1.71797 2.25,-0.59249 2.25,-0.5925 v 45.18237 45.18237 l 0.9729,1.81789 0.9729,1.81788 3.76949,0.70716 3.76948,0.70716 0.66373,0.41021 0.66374,0.41021 -0.47275,1.80779 -0.47274,1.80778 -10.68338,1.81896 -10.68337,1.81895 -1.25,0.47925 -1.25,0.47926 -0.0136,-3.35699 -0.0137,-3.35699 -0.54732,-2.03716 -0.54732,-2.03716 -3.85066,3.66305 -3.85067,3.66305 -4.7665,1.62411 -4.7665,1.62411 z m 8.53026,-11.96949 4.60211,0.0391 3.39789,-2.28983 3.39788,-2.28984 V 667.51622 646.6121 l -3.5,-2.05007 -3.5,-2.05006 -6.5,-0.006 -6.5,-0.006 -3.37606,2.40785 -3.37605,2.40786 -1.99299,4.50549 -1.993,4.50548 0.0438,8.58666 0.0438,8.58666 1.49092,4.79509 1.49091,4.79509 2.71342,3.55747 2.71342,3.55748 3.12088,1.35829 3.12088,1.3583 z m 60.98573,11.68978 -5.58785,0.43157 -4.22934,-1.98296 -4.22934,-1.98297 -2.07495,-3.30814 -2.07495,-3.30814 0.33724,-6 0.33725,-6 2.33511,-3.15533 2.33511,-3.15533 4.63194,-2.51454 4.63193,-2.51454 9.5,-2.62924 9.5,-2.62923 1.88577,-0.56138 1.88578,-0.56137 -0.5713,-6.81451 -0.57131,-6.8145 -1.48947,-2.88033 -1.48948,-2.88033 -2.62205,-1.19468 -2.62205,-1.19469 -3.70294,0.0147 -3.70295,0.0147 -2.49417,1.26189 -2.49417,1.26188 0.31832,3.69468 0.31831,3.69469 -2.59081,2.5908 -2.5908,2.59081 -3.21054,-0.31211 -3.21053,-0.31212 -1.17087,-2.36203 -1.17087,-2.36202 0.88136,-3.07314 0.88137,-3.07313 3.14844,-3.24837 3.14844,-3.24837 5.00735,-2.1541 5.00736,-2.15411 7.19627,-0.54425 7.19627,-0.54425 3.91463,1.27069 3.91464,1.27069 2.76509,1.94003 2.76509,1.94004 1.73491,3.17116 1.73491,3.17116 0.5,22.7882 0.5,22.7882 1.49169,0.92019 1.49169,0.92019 2.50831,-0.5866 2.50831,-0.58661 0.97626,-0.12179 0.97626,-0.12178 0.34062,2.22961 0.34062,2.22961 -4.74344,3.0082 -4.74344,3.0082 -3.22622,0.60524 -3.22622,0.60524 -3.51995,-1.67032 -3.51994,-1.67033 -1.6451,-3.46677 -1.64509,-3.46677 -3.44568,3.02534 -3.44568,3.02535 -3.14865,1.62823 -3.14865,1.62823 z m 5.69427,-9.71403 1.28212,0.0634 3.70423,-1.54773 3.70424,-1.54773 2.26364,-2.12658 2.26365,-2.1266 v -8.43409 -8.4341 l -2.75,0.65057 -2.75,0.65057 -5.21482,1.47555 -5.21483,1.47555 -2.59701,2.23385 -2.59701,2.23386 -0.567,4.22733 -0.56701,4.22733 1.68714,2.57489 1.68713,2.5749 2.19171,0.88282 2.1917,0.88283 z m 68.28638,10.0195 -3.5685,-0.0439 -3.84481,-1.37086 -3.84481,-1.37086 -2.53407,-2.33525 L 584.74224,697.5 583.37112,694.28212 582,691.06424 V 668.03212 645 h -4.5 -4.5 v -2.40498 -2.40498 l 4.31865,-2.53089 4.31865,-2.5309 3.22004,-3.29354 3.22005,-3.29354 2.60356,-5.32149 2.60357,-5.3215 2.10774,0.30091 L 597.5,618.5 v 9.25108 9.25109 l 9.75,-10e-4 L 617,637 v 3.96379 3.96379 l -9.59792,0.28621 -9.59793,0.28621 -0.23596,20 -0.23596,20 1.22825,3.11931 1.22825,3.1193 2.32814,1.6307 2.32814,1.63069 h 3.80961 3.80962 l 3.655,-1.52716 3.65501,-1.52716 1.56288,1.60485 1.56287,1.60485 -3.93553,3.43866 -3.93553,3.43867 -4.99597,1.48365 L 604.637,705 Z m 99.19043,-0.32928 -6.75893,0.36108 -5.3597,-1.50154 -5.3597,-1.50153 -4.1403,-2.76795 -4.1403,-2.76796 -3.25871,-4.85052 -3.25871,-4.85052 -1.61185,-5.54456 -1.61185,-5.54456 0.46844,-7.29923 0.46844,-7.29923 3.1618,-6.42254 3.16181,-6.42254 4.1203,-3.72245 4.12031,-3.72245 5.62001,-2.63516 L 691.5,635.5 h 8.52103 8.52102 l 6.67259,3.2849 6.67259,3.28491 2.91937,3.71509 2.91937,3.7151 1.58424,3.09829 1.58424,3.09828 1.20495,6.53952 1.20496,6.53951 -1.24685,6.3376 -1.24685,6.33761 -2.02591,4.02459 -2.02591,4.0246 -3.40557,4.20021 -3.40558,4.20022 -6.46491,3.18266 -6.46492,3.18267 z m 3.2646,-7.65747 3.02352,-0.65658 2.32054,-1.24191 2.32053,-1.24192 2.08236,-4.66447 2.08236,-4.66448 0.42829,-8 0.42828,-8 -1.11564,-5.99283 -1.11564,-5.99282 -2.23907,-4.50573 -2.23906,-4.50573 -3.36175,-2.2271 -3.36176,-2.22709 -3.35536,-0.62947 -3.35537,-0.62948 -4.34879,2.10522 -4.34879,2.10521 -2.43409,4.24991 L 682.5,654.5 v 12 12 l 1.7947,5.14263 1.79471,5.14263 3.39254,3.49319 3.39255,3.49319 3.81275,0.92715 3.81275,0.92715 z m 144.12634,7.62736 -8.14987,0.3629 -5.73223,-1.29537 -5.73223,-1.29538 -0.52519,-0.52519 -0.5252,-0.5252 -0.9617,-7.40924 -0.9617,-7.40924 -0.0309,-3.25 L 825,680 h 1.82906 1.82907 l 2.37278,5.06599 2.37279,5.066 3.68202,3.32649 3.68202,3.32648 4.07396,0.6883 4.07395,0.68829 2.29218,-0.69571 2.29217,-0.69571 2.25,-2.05938 2.25,-2.05938 v -2.76992 -2.76992 l -2.25533,-2.62197 -2.25532,-2.62198 -11.96883,-6.18379 -11.96882,-6.18379 -2.31422,-4 -2.31423,-4 0.29988,-7.09292 0.29987,-7.09292 2.71131,-3.55471 2.71131,-3.55471 4.77719,-2.31718 4.77719,-2.31717 6.13748,-0.39453 6.13748,-0.39452 7.08323,1.19474 7.08323,1.19474 0.49086,3.16459 0.49086,3.16459 0.35224,6.25 0.35224,6.25 -2.56381,-0.041 -2.56381,-0.041 -2.36829,-5.04564 -2.36828,-5.04565 -3.13172,-1.91045 -3.13171,-1.91046 -3.16494,-0.59824 -3.16494,-0.59825 -2.82595,1.35445 -2.82595,1.35444 -1.26945,2.6486 -1.26944,2.64861 0.94907,2.49626 0.94908,2.49625 2.31126,2.18866 2.31126,2.18865 9.61389,4.84819 9.61389,4.84819 3.11171,3.11171 3.11171,3.1117 1.1251,4.17833 1.12511,4.17833 -0.50551,3.76885 -0.50551,3.76885 -2.52033,4.30063 -2.52033,4.30062 -5.17499,2.81658 -5.17499,2.81659 z M 145.5,703 H 123 v -2.38129 -2.38128 l 4.7367,-1.19272 4.7367,-1.19271 1.2633,-1.04844 L 135,693.75511 V 656.5 619.24489 l -1.32501,-1.09966 -1.32501,-1.09967 -5.17499,-1.19453 L 122,614.6565 V 612.32825 610 h 35.42054 35.42055 l 0.54232,2.75 0.54233,2.75 0.26822,8.5 0.26822,8.5 -2.48109,0.29075 -2.48109,0.29075 -2.67427,-6.06013 -2.67426,-6.06014 -3.61868,-1.51198 -3.61868,-1.51198 -11.70706,0.28137 L 153.5,618.5 153.22582,635.25 152.95164,652 h 10.96748 10.96747 l 1.55671,-2.22251 1.5567,-2.2225 V 645.27749 643 h 3 3 v 13.82681 13.8268 l -3,-0.4403 -3,-0.44031 v -2.81507 -2.81507 l -1.56993,-1.56993 -1.56992,-1.56993 -2.18008,-0.54655 -2.18007,-0.54656 -8.5,0.29506 -8.5,0.29505 -0.27823,13.7514 -0.27823,13.7514 0.83859,3.2486 0.83859,3.2486 6.68964,1.93486 L 168,698.36971 V 700.68486 703 Z m 220.38337,0 H 349 v -2.38871 -2.38871 l 3.39952,-0.63775 3.39951,-0.63775 1.11922,-1.34858 1.11922,-1.34858 -0.26873,-23.36073 -0.26874,-23.36073 -4.8189,-2.28723 -4.81889,-2.28722 0.32696,-1.69777 0.32696,-1.69776 7.41376,-1.24131 7.41375,-1.24131 2.97741,-1.03793 2.9774,-1.03793 h 1.7745 1.7745 l 0.82628,5.0905 0.82627,5.09051 4.5,-3.60156 4.5,-3.60155 4.9315,-1.48895 L 393.363,635 h 4.13919 4.13918 l 5.37773,2.75 5.37774,2.75 2.05158,4 2.05158,4 0.5,23.5 0.5,23.5 4.5,1.47568 4.5,1.47568 0.21034,0.068 0.21033,0.068 -0.57696,2.20633 L 425.76674,703 h -16.26679 -16.2668 l -0.45999,-2.40632 -0.46,-2.40631 2.99811,-0.59962 2.99811,-0.59963 1.34531,-1.1165 L 401,694.75511 v -19.40967 -19.40968 l -1.42122,-3.40146 -1.42122,-3.40146 -3.24235,-1.67669 -3.24235,-1.67668 -5.1754,0.42918 -5.1754,0.42919 -3.67991,2.27431 -3.67992,2.27431 0.26889,22.15677 L 374.5,695.5 l 4.5,1.47568 4.5,1.47568 0.21034,0.068 0.21033,0.068 -0.57696,2.20633 L 382.76674,703 Z m 277.73326,0 h -17.38337 l -0.57697,-2.20633 -0.57696,-2.20633 0.21033,-0.068 0.21034,-0.068 4.5,-1.47568 4.5,-1.47568 0.26828,-23.8283 0.26829,-23.82831 -5.01829,-2.12016 L 625,643.60306 v -1.78248 -1.78248 l 2.25,-0.44512 2.25,-0.44511 10.20295,-1.91775 10.20294,-1.91774 0.54706,1.4256 0.54705,1.42559 v 27.84679 27.84678 l 1.45093,1.45094 1.45094,1.45093 3.54906,0.66581 L 661,698.09063 V 700.54531 703 Z m 113,0 h -17.38337 l -0.57697,-2.20633 -0.57696,-2.20633 0.21033,-0.068 0.21034,-0.068 4.5,-1.47568 4.5,-1.47568 0.26746,-24.10942 0.26746,-24.10942 -5.09523,-2.11748 -5.09523,-2.11748 0.32777,-1.69501 0.32777,-1.695 9.5,-1.93676 9.5,-1.93675 2.47902,-0.14134 2.47902,-0.14134 1.05532,4.9088 1.05532,4.9088 3.70056,-3.24914 3.70057,-3.24914 5.02582,-1.90966 L 782.02145,635 h 4.87508 4.87509 l 5.26691,2.75147 5.26692,2.75147 2.09727,3.99853 L 806.5,648.5 807,672 l 0.5,23.5 4.25,1.46917 4.25,1.46916 V 700.71917 703 H 799.5 783 v -2.34171 -2.34171 l 4,-1.19843 4,-1.19843 -0.004,-20.70986 -0.004,-20.70986 -1.94275,-3.18618 -1.94275,-3.18618 -2.19343,-1.17389 -2.19344,-1.17389 -5.66834,0.41001 -5.66834,0.41001 -3.71062,2.29329 -3.71062,2.29329 0.26889,22.15677 0.2694,22.15677 4.74475,1.5 4.74475,1.5 0.005,2.25 L 774,703 Z m -113.1647,-79.55722 -2.95193,0.47354 -1.5,-0.58544 -1.5,-0.58544 -2.23469,-2.03265 -2.23469,-2.03265 -0.60381,-3.21859 -0.60381,-3.21859 1.59885,-3.09183 1.59885,-3.09184 1.92391,-1.02965 L 638.86852,604 H 642 h 3.13148 l 1.92391,1.02964 1.92391,1.02965 1.59885,3.09184 1.59885,3.09183 -0.60381,3.21859 -0.60381,3.21859 -2.28276,2.14454 -2.28277,2.14455 z M 514.5,566.51137 l -3,1.26254 -5.23457,-2.58622 -5.23456,-2.58622 -0.01,-62.05074 -0.01,-62.05073 1.05573,-3.80202 1.05572,-3.80202 3.18864,-1.94424 3.18863,-1.94424 2.79966,-0.004 2.79966,-0.004 2.9933,1.5479 2.9933,1.54789 0.95704,2.51721 0.95704,2.5172 v 63.77438 63.77439 l -2.75,1.28493 -2.75,1.28493 z m -36.25,-14.57018 -0.75,-0.0588 -1.5,-0.92437 -1.5,-0.92436 -8.77504,-3.96379 -8.77504,-3.96379 0.27504,-54.47307 0.27504,-54.47307 2.40993,-2.56466 2.40993,-2.56466 3.35674,-0.62973 3.35673,-0.62972 3.10161,1.28472 3.1016,1.28473 1.87799,3.07969 1.87799,3.07969 0.004,58.25 L 479,552 Z m 78.5,-4.87121 -10.75,4.74318 v -58.8908 -58.89081 l 2.75,-3.07752 2.75,-3.07752 4.08725,-0.54809 4.08726,-0.5481 3.02189,1.56268 3.02189,1.56268 1.15383,2.79716 1.15383,2.79716 -0.26297,53.4134 -0.26298,53.41341 z m -123,-15.12711 -1.25,-0.0571 -9.5,-4.26608 -9.5,-4.26608 -0.22087,-74.32066 -0.22087,-74.32066 -1.4889,-5.10613 -1.48891,-5.10612 -2.93505,-4.61889 -2.93506,-4.61889 -3.54609,-2.70473 -3.54608,-2.70474 -5.06981,-1.92637 L 386.97855,346 h -5.30778 -5.30777 l -4.97518,1.47747 -4.97518,1.47747 -4.06446,3.47903 -4.06446,3.47903 -2.24692,5.2231 -2.24692,5.2231 0.4103,6.44369 0.41031,6.4437 4.15603,3.8767 4.15603,3.87671 h 4.3476 4.34759 l 1.83759,-1.34368 1.83759,-1.34368 -0.70706,-2.90632 -0.70706,-2.90632 -0.54822,-2.7181 -0.54822,-2.71811 3.0319,-3.03189 3.03189,-3.0319 h 4.12659 4.12658 l 2.94053,1.52061 2.94053,1.5206 1.98332,3.88763 1.98332,3.88763 0.62104,3.88378 0.62104,3.88377 -1.16927,4.34234 -1.16927,4.34234 -2.50525,3.78568 -2.50524,3.78569 -3.93607,2.60476 -3.93607,2.60477 -6.13458,1.5716 -6.13458,1.57161 -5.59938,-0.67128 -5.59939,-0.67128 -5.21807,-2.35518 -5.21806,-2.35518 -5.04066,-4.71494 -5.04065,-4.71495 -3.24128,-6.58397 -3.24128,-6.58398 v -10.59641 -10.59642 l 4.21264,-8.50147 4.21265,-8.50147 5.28735,-5.45108 5.28736,-5.45109 6.25,-2.93777 6.25,-2.93778 V 325.78428 325 h -7.82069 -7.82068 l -5.42932,-2.75 -5.42931,-2.75 -2.29939,-4.5 -2.29939,-4.5 0.57171,-2.98661 0.57171,-2.9866 1.33396,-1.33396 1.33396,-1.33396 58.39372,-0.40021 58.39372,-0.40021 18.75,-0.0292 L 491,301 v -1.2556 -1.25559 L 457.42106,264.9944 423.84211,231.5 l -3.97526,-5.77495 -3.97526,-5.77495 -2.54523,-6.72505 -2.54523,-6.72505 -0.5039,-7.5 -0.5039,-7.5 1.62363,-6.89955 1.62362,-6.89955 3.04835,-6.38724 3.04835,-6.38724 5.95165,-6.36233 5.95165,-6.36233 7.72971,-4.00711 7.72971,-4.00711 4.44821,-1.18569 4.44822,-1.18569 7.82663,0.0838 7.82664,0.0838 4.72515,1.13388 4.72515,1.13389 6.46802,3.11886 6.46801,3.11886 9.33752,8.92673 9.33752,8.92672 7.69446,-7.61635 7.69447,-7.61635 6,-3.5913 6,-3.5913 6.5,-2.02234 6.5,-2.02235 8.50466,-0.0128 8.50467,-0.0128 4.99533,1.67276 4.99534,1.67275 5.64229,2.98059 5.64229,2.9806 5.35771,4.80092 5.35771,4.80093 3.37718,5.62561 3.37718,5.6256 2.4786,6.74155 2.47859,6.74155 0.0922,9 0.0921,9 -1.82105,5.5 -1.82106,5.5 -3.56544,7 -3.56545,7 -35.49791,35.73018 -35.49791,35.73019 0.72272,0.72272 0.72272,0.72272 76.42806,0.0471 76.42806,0.0471 1.7857,1.78571 1.78571,1.78572 v 4.29213 4.29212 l -2.69355,3.53144 -2.69356,3.53143 -3.80644,1.85652 -3.80645,1.85652 -9.5,0.53751 -9.5,0.53752 7.5,3.57632 7.5,3.57633 4.82212,4.90828 4.82212,4.90828 3.32974,5.51209 3.32974,5.51208 1.59814,5.4315 L 692,364.363 v 7.16195 7.16195 l -1.94032,5.63963 -1.94031,5.63963 -3.14228,4.56714 -3.14228,4.56715 -4.66741,3.45114 -4.6674,3.45113 -6.84562,2.12509 -6.84561,2.12508 -5.17158,-0.60782 -5.17159,-0.60782 -4.5388,-1.54653 -4.53881,-1.54652 -3.60376,-2.97053 -3.60377,-2.97053 -2.59023,-5.19791 -2.59023,-5.19792 0.022,-5.05365 0.022,-5.05366 1.85241,-4.0786 1.85241,-4.0786 2.76049,-2.1714 L 636.2698,367 h 4.75435 4.75436 l 2.12457,1.75 2.12458,1.75 0.86581,3.07358 0.86581,3.07359 -1.34417,2.42641 -1.34416,2.42642 -0.0354,0.75 L 649,383 l 2,2 2,2 h 4.36514 4.36514 l 2.65484,-2.0883 2.65484,-2.08829 1.48002,-2.86205 1.48002,-2.86204 -0.022,-5.79966 -0.022,-5.79966 -1.82701,-4 -1.82701,-4 -3.40103,-3.33825 -3.40103,-3.33825 -3.97059,-2.04461 -3.97059,-2.04461 -6.16837,-0.49514 -6.16838,-0.49513 -5.67887,1.78622 -5.67886,1.78622 -4.71972,4.24343 -4.71971,4.24343 -2.66975,4.90522 -2.66976,4.90522 -0.71713,4.44313 -0.71713,4.44312 -0.0756,73.36986 -0.0756,73.36986 -9.88041,4.38014 L 591.73918,532 H 590.86959 590 V 470 408 H 512.5 435 v 62 62 z M 512.4096,385 h 76.47237 l 0.46168,-0.75 0.46168,-0.75 0.33259,-8 0.33259,-8 -78.1586,-0.25608 -78.1586,-0.25607 0.50517,7.75607 0.50517,7.75608 0.38679,1.25 0.38679,1.25 z m 1.1769,-41.33016 88.08649,-0.16984 5.7592,-5.26381 5.75921,-5.26381 5.89243,-3.23619 5.89244,-3.23619 0.0119,-0.75 L 625,325 H 512 399 v 0.78537 0.78537 l 6.30279,3.10804 6.3028,3.10805 5.4472,4.95445 5.44721,4.95444 1.5,0.57198 1.5,0.57199 z M 512.61236,287 h 1.14869 l 35.36948,-35.95856 35.36947,-35.95856 2.96747,-5.79144 2.96747,-5.79144 0.0325,-8 0.0325,-8 -2.65205,-5.5 -2.65205,-5.5 -3.27691,-3.38726 -3.27691,-3.38725 -5.57104,-2.61275 L 567.5,164.5 l -7.5,0.0348 -7.5,0.0349 -5,2.62991 -5,2.62992 -14.85128,16.13481 -14.85128,16.13482 -1.10811,-0.36937 -1.10811,-0.36937 -14.57711,-15.88964 -14.5771,-15.88963 -4.94274,-2.54057 L 471.54152,164.5 H 463.52076 455.5 l -5.6816,2.79009 -5.68161,2.79008 -3.21274,3.65911 -3.21274,3.65911 -2.1006,4.5508 -2.1006,4.55081 0.002,9 0.002,9 2.34561,4.5 2.34561,4.5 36.62906,36.75 36.62905,36.75 z"
         id="path2" />
    </g>
  </g>
</svg>
